{
	"asset":{
		"generator":"Khronos glTF Blender I/O v4.3.47",
		"version":"2.0"
	},
	"scene":0,
	"scenes":[
		{
			"name":"Scene",
			"nodes":[
				0,
				1,
				2,
				3
			]
		}
	],
	"nodes":[
		{
			"mesh":0,
			"name":"Cube"
		},
		{
			"mesh":1,
			"name":"Cube.001"
		},
		{
			"mesh":2,
			"name":"Cube.002"
		},
		{
			"mesh":3,
			"name":"Cube.003"
		}
	],
	"materials":[
		{
			"doubleSided":true,
			"name":"Material.006",
			"pbrMetallicRoughness":{
				"metallicFactor":0.7409326434135437,
				"roughnessFactor":0.7694300413131714
			}
		}
	],
	"meshes":[
		{
			"name":"Cube",
			"primitives":[
				{
					"attributes":{
						"POSITION":0,
						"TEXCOORD_0":1
					},
					"indices":2,
					"material":0
				}
			]
		},
		{
			"name":"Cube.004",
			"primitives":[
				{
					"attributes":{
						"POSITION":3,
						"TEXCOORD_0":4
					},
					"indices":5,
					"material":0
				}
			]
		},
		{
			"name":"Cube.005",
			"primitives":[
				{
					"attributes":{
						"POSITION":6,
						"TEXCOORD_0":7
					},
					"indices":8,
					"material":0
				}
			]
		},
		{
			"name":"Cube.006",
			"primitives":[
				{
					"attributes":{
						"POSITION":9,
						"TEXCOORD_0":10
					},
					"indices":11,
					"material":0
				}
			]
		}
	],
	"accessors":[
		{
			"bufferView":0,
			"componentType":5126,
			"count":18,
			"max":[
				9.899999618530273,
				0.6379669308662415,
				9.899999618530273
			],
			"min":[
				-9.899999618530273,
				-0.6379669308662415,
				-9.899999618530273
			],
			"type":"VEC3"
		},
		{
			"bufferView":1,
			"componentType":5126,
			"count":18,
			"type":"VEC2"
		},
		{
			"bufferView":2,
			"componentType":5123,
			"count":36,
			"type":"SCALAR"
		},
		{
			"bufferView":3,
			"componentType":5126,
			"count":18,
			"max":[
				10.438909530639648,
				18.78536605834961,
				9.899999618530273
			],
			"min":[
				9.162973403930664,
				-1.0146331787109375,
				-9.899999618530273
			],
			"type":"VEC3"
		},
		{
			"bufferView":4,
			"componentType":5126,
			"count":18,
			"type":"VEC2"
		},
		{
			"bufferView":5,
			"componentType":5123,
			"count":36,
			"type":"SCALAR"
		},
		{
			"bufferView":6,
			"componentType":5126,
			"count":18,
			"max":[
				12.451129913330078,
				18.78536605834961,
				19.879413604736328
			],
			"min":[
				-1.2534871101379395,
				-1.014634132385254,
				3.8915796279907227
			],
			"type":"VEC3"
		},
		{
			"bufferView":7,
			"componentType":5126,
			"count":18,
			"type":"VEC2"
		},
		{
			"bufferView":8,
			"componentType":5123,
			"count":36,
			"type":"SCALAR"
		},
		{
			"bufferView":9,
			"componentType":5126,
			"count":18,
			"max":[
				13.59273910522461,
				18.78536605834961,
				-5.033191680908203
			],
			"min":[
				-2.3950958251953125,
				-1.014634132385254,
				-18.737808227539062
			],
			"type":"VEC3"
		},
		{
			"bufferView":10,
			"componentType":5126,
			"count":18,
			"type":"VEC2"
		},
		{
			"bufferView":11,
			"componentType":5123,
			"count":36,
			"type":"SCALAR"
		}
	],
	"bufferViews":[
		{
			"buffer":0,
			"byteLength":216,
			"byteOffset":0,
			"target":34962
		},
		{
			"buffer":0,
			"byteLength":144,
			"byteOffset":216,
			"target":34962
		},
		{
			"buffer":0,
			"byteLength":72,
			"byteOffset":360,
			"target":34963
		},
		{
			"buffer":0,
			"byteLength":216,
			"byteOffset":432,
			"target":34962
		},
		{
			"buffer":0,
			"byteLength":144,
			"byteOffset":648,
			"target":34962
		},
		{
			"buffer":0,
			"byteLength":72,
			"byteOffset":792,
			"target":34963
		},
		{
			"buffer":0,
			"byteLength":216,
			"byteOffset":864,
			"target":34962
		},
		{
			"buffer":0,
			"byteLength":144,
			"byteOffset":1080,
			"target":34962
		},
		{
			"buffer":0,
			"byteLength":72,
			"byteOffset":1224,
			"target":34963
		},
		{
			"buffer":0,
			"byteLength":216,
			"byteOffset":1296,
			"target":34962
		},
		{
			"buffer":0,
			"byteLength":144,
			"byteOffset":1512,
			"target":34962
		},
		{
			"buffer":0,
			"byteLength":72,
			"byteOffset":1656,
			"target":34963
		}
	],
	"buffers":[
		{
			"byteLength":1728,
			"uri":"shootingGallery.bin"
		}
	]
}
